# xmcd CD database file
#
# Track frame offsets:
#	150
#	10910
#	44506
#	81048
#	116486
#	160995
#	192144
#	221057
#	265710
#	313366
#
# Disc length: 4657 seconds
#
# Revision: 0
# Processed by: cddbd v1.5.2PL0 Copyright (c) Steve Scherf et al.
# Submitted via: CDex 1.51
#
DISCID=87122f0a
DTITLE=Deosil - Automatic Music
DYEAR=1900
DGENRE=New Age
TTITLE0=Incantation 
TTITLE1=Discovery  
TTITLE2=Night Dance  
TTITLE3=Star's Journey  
TTITLE4=Drifting Inward
TTITLE5=Infinite Motion
TTITLE6=Lament For Gaia
TTITLE7=Vortex Incarnate
TTITLE8=Mayan Divination 
TTITLE9=Solar Rebirth 
EXTD=
EXTT0=
EXTT1=
EXTT2=
EXTT3=
EXTT4=
EXTT5=
EXTT6=
EXTT7=
EXTT8=
EXTT9=
PLAYORDER=
